# xmcd CD database file
#
# Track frame offsets:
#	151
#	14436
#	28904
#	42212
#	55763
#	70352
#	84086
#	99338
#	113285
#	126824
#	141634
#	155897
#	170615
#	185318
#	199629
#	214108
#	227229
#	240227
#	254126
#	268066
#	281046
#
# Disc length: 3917 seconds
#
# Revision: 0
# Processed by: cddbd v1.5.1PL0 Copyright (c) Steve Scherf et al.
# Submitted via: CDex 1.51
#
DISCID=300f4b15
DTITLE=Frank Stokes - Memphis Rounder
DYEAR=2000
DGENRE=Blues
TTITLE0=Downtown Blues (Take 1)
TTITLE1=Downtown Blues (Take 2)
TTITLE2=Bedtime Blues
TTITLE3=What's The Matter Blues
TTITLE4=Mistreatin' Blues
TTITLE5=It Won't Be Long Now (Take 1)
TTITLE6=It Won't Be Long Now (Take 2)
TTITLE7=Nehi Momma Blues
TTITLE8=I Got Mine
TTITLE9=Stop That Thing
TTITLE10='Taint Nobody's Business If I Do - Part 1
TTITLE11='Taint Nobody's Business If I Do - Part 2 (Take 1)
TTITLE12='Taint Nobody's Business If I Do - Part 2 (Take 2)
TTITLE13=Take Me Back
TTITLE14=How Long
TTITLE15=South Memphis Blues
TTITLE16=Bunker Hill Blues
TTITLE17=Right Now Blues
TTITLE18=Shiney Town Blues
TTITLE19=Frank Stokes' Dream
TTITLE20=Memphis Rounders Blues
EXTD=YEAR: 2000
EXTT0=
EXTT1=
EXTT2=
EXTT3=
EXTT4=
EXTT5=
EXTT6=
EXTT7=
EXTT8=
EXTT9=
EXTT10=
EXTT11=
EXTT12=
EXTT13=
EXTT14=
EXTT15=
EXTT16=
EXTT17=
EXTT18=
EXTT19=
EXTT20=
PLAYORDER=
